<svg version="1.1" xmlns="http://www.w3.org/2000/svg" xmlns:xlink="http://www.w3.org/1999/xlink" width="844.0859375" height="222"><defs/><g><g transform="translate(-583,-222) scale(1,1)"><rect fill="#ffffff" stroke="none" x="600" y="344" width="225.26318359375" height="90"/></g><g transform="translate(-583,-222) scale(1,1)"><path fill="none" stroke="#000000" d="M 600 344 L 825.26318359375 344 L 825.26318359375 434 L 600 434 L 600 344 Z Z" stroke-miterlimit="10"/></g><g transform="translate(-583,-222) scale(1,1)"><path fill="none" stroke="#000000" d="M 600 367 L 825.26318359375 367" stroke-miterlimit="10"/></g><g transform="translate(-583,-222) scale(1,1)"><path fill="none" stroke="#000000" d="M 628.05908203125 367 L 628.05908203125 434" stroke-miterlimit="10"/></g><g transform="translate(-583,-222) scale(1,1)"><path fill="none" stroke="#000000" d="M 721.8798828125 367 L 721.8798828125 434" stroke-miterlimit="10"/></g><g transform="translate(-583,-222) scale(1,1)"><g><path fill="none" stroke="none"/><text fill="#000000" stroke="none" font-family="Arial" font-size="13px" font-style="normal" font-weight="bold" text-decoration="none" x="694.927978515625" y="361.5">admin</text></g></g><g transform="translate(-583,-222) scale(1,1)"><g><path fill="none" stroke="none"/><text fill="#000000" stroke="none" font-family="Arial" font-size="13px" font-style="normal" font-weight="normal" text-decoration="none" x="605" y="385">PK</text></g></g><g transform="translate(-583,-222) scale(1,1)"><g><path fill="none" stroke="none"/><text fill="#000000" stroke="none" font-family="Arial" font-size="13px" font-style="normal" font-weight="normal" text-decoration="none" x="633.05908203125" y="385">username</text></g></g><g transform="translate(-583,-222) scale(1,1)"><g><path fill="none" stroke="none"/><text fill="#000000" stroke="none" font-family="Arial" font-size="13px" font-style="normal" font-weight="normal" text-decoration="none" x="726.8798828125" y="385">VARCHAR(12)</text></g></g><g transform="translate(-583,-222) scale(1,1)"><g><path fill="none" stroke="none"/><text fill="#000000" stroke="none" font-family="Arial" font-size="13px" font-style="normal" font-weight="normal" text-decoration="none" x="605" y="384.5"></text></g></g><g transform="translate(-583,-222) scale(1,1)"><g><path fill="none" stroke="none"/><text fill="#000000" stroke="none" font-family="Arial" font-size="13px" font-style="normal" font-weight="normal" text-decoration="none" x="605" y="400"></text></g></g><g transform="translate(-583,-222) scale(1,1)"><g><path fill="none" stroke="none"/><text fill="#000000" stroke="none" font-family="Arial" font-size="13px" font-style="normal" font-weight="normal" text-decoration="none" x="633.05908203125" y="400">password</text></g></g><g transform="translate(-583,-222) scale(1,1)"><g><path fill="none" stroke="none"/><text fill="#000000" stroke="none" font-family="Arial" font-size="13px" font-style="normal" font-weight="normal" text-decoration="none" x="726.8798828125" y="400">CHAR(88)</text></g></g><g transform="translate(-583,-222) scale(1,1)"><g><path fill="none" stroke="none"/><text fill="#000000" stroke="none" font-family="Arial" font-size="13px" font-style="normal" font-weight="normal" text-decoration="none" x="605" y="399.5"></text></g></g><g transform="translate(-583,-222) scale(1,1)"><g><path fill="none" stroke="none"/><text fill="#000000" stroke="none" font-family="Arial" font-size="13px" font-style="normal" font-weight="normal" text-decoration="none" x="605" y="415"></text></g></g><g transform="translate(-583,-222) scale(1,1)"><g><path fill="none" stroke="none"/><text fill="#000000" stroke="none" font-family="Arial" font-size="13px" font-style="normal" font-weight="normal" text-decoration="none" x="633.05908203125" y="415">name</text></g></g><g transform="translate(-583,-222) scale(1,1)"><g><path fill="none" stroke="none"/><text fill="#000000" stroke="none" font-family="Arial" font-size="13px" font-style="normal" font-weight="normal" text-decoration="none" x="726.8798828125" y="415">VARHCAR(255)</text></g></g><g transform="translate(-583,-222) scale(1,1)"><g><path fill="none" stroke="none"/><text fill="#000000" stroke="none" font-family="Arial" font-size="13px" font-style="normal" font-weight="normal" text-decoration="none" x="605" y="414.5"></text></g></g><g transform="translate(-583,-222) scale(1,1)"><g><path fill="none" stroke="none"/><text fill="#000000" stroke="none" font-family="Arial" font-size="13px" font-style="normal" font-weight="normal" text-decoration="none" x="605" y="430"></text></g></g><g transform="translate(-583,-222) scale(1,1)"><g><path fill="none" stroke="none"/><text fill="#000000" stroke="none" font-family="Arial" font-size="13px" font-style="normal" font-weight="normal" text-decoration="none" x="633.05908203125" y="430">membersince</text></g></g><g transform="translate(-583,-222) scale(1,1)"><g><path fill="none" stroke="none"/><text fill="#000000" stroke="none" font-family="Arial" font-size="13px" font-style="normal" font-weight="normal" text-decoration="none" x="726.8798828125" y="430">TIMESTAMP</text></g></g><g transform="translate(-583,-222) scale(1,1)"><g><path fill="none" stroke="none"/><text fill="#000000" stroke="none" font-family="Arial" font-size="13px" font-style="normal" font-weight="normal" text-decoration="none" x="605" y="429.5"></text></g></g><g transform="translate(-583,-222) scale(1,1)"><rect fill="#ffffff" stroke="none" x="680" y="232" width="215.13232421875" height="75"/></g><g transform="translate(-583,-222) scale(1,1)"><path fill="none" stroke="#000000" d="M 680 232 L 895.13232421875 232 L 895.13232421875 307 L 680 307 L 680 232 Z Z" stroke-miterlimit="10"/></g><g transform="translate(-583,-222) scale(1,1)"><path fill="none" stroke="#000000" d="M 680 255 L 895.13232421875 255" stroke-miterlimit="10"/></g><g transform="translate(-583,-222) scale(1,1)"><path fill="none" stroke="#000000" d="M 720.3291015625 255 L 720.3291015625 307" stroke-miterlimit="10"/></g><g transform="translate(-583,-222) scale(1,1)"><path fill="none" stroke="#000000" d="M 791.7490234375 255 L 791.7490234375 307" stroke-miterlimit="10"/></g><g transform="translate(-583,-222) scale(1,1)"><g><path fill="none" stroke="none"/><text fill="#000000" stroke="none" font-family="Arial" font-size="13px" font-style="normal" font-weight="bold" text-decoration="none" x="745.658935546875" y="249.5">admin-session</text></g></g><g transform="translate(-583,-222) scale(1,1)"><g><path fill="none" stroke="none"/><text fill="#000000" stroke="none" font-family="Arial" font-size="13px" font-style="normal" font-weight="normal" text-decoration="none" x="685" y="273">FK,U</text></g></g><g transform="translate(-583,-222) scale(1,1)"><g><path fill="none" stroke="none"/><text fill="#000000" stroke="none" font-family="Arial" font-size="13px" font-style="normal" font-weight="normal" text-decoration="none" x="725.3291015625" y="273">username</text></g></g><g transform="translate(-583,-222) scale(1,1)"><g><path fill="none" stroke="none"/><text fill="#000000" stroke="none" font-family="Arial" font-size="13px" font-style="normal" font-weight="normal" text-decoration="none" x="796.7490234375" y="273">VARCHAR(12)</text></g></g><g transform="translate(-583,-222) scale(1,1)"><g><path fill="none" stroke="none"/><text fill="#000000" stroke="none" font-family="Arial" font-size="13px" font-style="normal" font-weight="normal" text-decoration="none" x="685" y="272.5"></text></g></g><g transform="translate(-583,-222) scale(1,1)"><g><path fill="none" stroke="none"/><text fill="#000000" stroke="none" font-family="Arial" font-size="13px" font-style="normal" font-weight="normal" text-decoration="none" x="685" y="288">PK</text></g></g><g transform="translate(-583,-222) scale(1,1)"><g><path fill="none" stroke="none"/><text fill="#000000" stroke="none" font-family="Arial" font-size="13px" font-style="normal" font-weight="normal" text-decoration="none" x="725.3291015625" y="288">token</text></g></g><g transform="translate(-583,-222) scale(1,1)"><g><path fill="none" stroke="none"/><text fill="#000000" stroke="none" font-family="Arial" font-size="13px" font-style="normal" font-weight="normal" text-decoration="none" x="796.7490234375" y="288">VARCHAR(255)</text></g></g><g transform="translate(-583,-222) scale(1,1)"><g><path fill="none" stroke="none"/><text fill="#000000" stroke="none" font-family="Arial" font-size="13px" font-style="normal" font-weight="normal" text-decoration="none" x="685" y="287.5"></text></g></g><g transform="translate(-583,-222) scale(1,1)"><g><path fill="none" stroke="none"/><text fill="#000000" stroke="none" font-family="Arial" font-size="13px" font-style="normal" font-weight="normal" text-decoration="none" x="685" y="303"></text></g></g><g transform="translate(-583,-222) scale(1,1)"><g><path fill="none" stroke="none"/><text fill="#000000" stroke="none" font-family="Arial" font-size="13px" font-style="normal" font-weight="normal" text-decoration="none" x="725.3291015625" y="303">expires</text></g></g><g transform="translate(-583,-222) scale(1,1)"><g><path fill="none" stroke="none"/><text fill="#000000" stroke="none" font-family="Arial" font-size="13px" font-style="normal" font-weight="normal" text-decoration="none" x="796.7490234375" y="303">TIMESTAMP</text></g></g><g transform="translate(-583,-222) scale(1,1)"><g><path fill="none" stroke="none"/><text fill="#000000" stroke="none" font-family="Arial" font-size="13px" font-style="normal" font-weight="normal" text-decoration="none" x="685" y="302.5"></text></g></g><g transform="translate(-583,-222) scale(1,1)"><path fill="none" stroke="#000000" d="M 608 344 L 608 288 M 608 288 A 8 8 0 0 1 616 280 L 680 280" stroke-miterlimit="10"/></g><g transform="translate(-583,-222) scale(1,1)"><path fill="#FFFFFF" stroke="none" d="M 651 280 C 651 276.1340064 654.1340064 273 658 273 C 661.8659936 273 665 276.1340064 665 280 C 665 283.8659936 661.8659936 287 658 287 C 654.1340064 287 651 283.8659936 651 280 Z"/></g><g transform="translate(-583,-222) scale(1,1)"><path fill="none" stroke="#000000" d="M 651 280 C 651 276.1340064 654.1340064 273 658 273 C 661.8659936 273 665 276.1340064 665 280 C 665 283.8659936 661.8659936 287 658 287 C 654.1340064 287 651 283.8659936 651 280 Z" stroke-miterlimit="10"/></g><g transform="translate(-583,-222) scale(1,1)"><path fill="none" stroke="#000000" d="M 673 287 L 673 273" stroke-miterlimit="10"/></g><g transform="translate(-583,-222) scale(1,1)"><path fill="none" stroke="#000000" d="M 601 337 L 615 337" stroke-miterlimit="10"/></g><g transform="translate(-583,-222) scale(1,1)"><path fill="none" stroke="#000000" d="M 601 330 L 615 330" stroke-miterlimit="10"/></g><g transform="translate(-583,-222) scale(1,1)"><g><path fill="none" stroke="none"/><text fill="#000000" stroke="none" font-family="Arial" font-size="13px" font-style="normal" font-weight="normal" text-decoration="none" x="592.5" y="324.5"></text></g></g><g transform="translate(-583,-222) scale(1,1)"><g><path fill="none" stroke="none"/><text fill="#000000" stroke="none" font-family="Arial" font-size="13px" font-style="normal" font-weight="normal" text-decoration="none" x="653.5" y="271.5"></text></g></g><g transform="translate(-583,-222) scale(1,1)"><rect fill="#ffffff" stroke="none" x="896" y="312" width="197.05419921875" height="120"/></g><g transform="translate(-583,-222) scale(1,1)"><path fill="none" stroke="#0000ff" d="M 896 312 L 1093.05419921875 312 L 1093.05419921875 432 L 896 432 L 896 312 Z Z" stroke-miterlimit="10"/></g><g transform="translate(-583,-222) scale(1,1)"><path fill="none" stroke="#0000ff" d="M 896 335 L 1093.05419921875 335" stroke-miterlimit="10"/></g><g transform="translate(-583,-222) scale(1,1)"><path fill="none" stroke="#0000ff" d="M 924.05908203125 335 L 924.05908203125 432" stroke-miterlimit="10"/></g><g transform="translate(-583,-222) scale(1,1)"><path fill="none" stroke="#0000ff" d="M 988.2490234375 335 L 988.2490234375 432" stroke-miterlimit="10"/></g><g transform="translate(-583,-222) scale(1,1)"><g><path fill="none" stroke="none"/><text fill="#0000ff" stroke="none" font-family="Arial" font-size="13px" font-style="normal" font-weight="bold" text-decoration="none" x="978.626220703125" y="329.5">event</text></g></g><g transform="translate(-583,-222) scale(1,1)"><g><path fill="none" stroke="none"/><text fill="#0000ff" stroke="none" font-family="Arial" font-size="13px" font-style="normal" font-weight="normal" text-decoration="none" x="901" y="353">PK</text></g></g><g transform="translate(-583,-222) scale(1,1)"><g><path fill="none" stroke="none"/><text fill="#0000ff" stroke="none" font-family="Arial" font-size="13px" font-style="normal" font-weight="normal" text-decoration="none" x="929.05908203125" y="353">id</text></g></g><g transform="translate(-583,-222) scale(1,1)"><g><path fill="none" stroke="none"/><text fill="#0000ff" stroke="none" font-family="Arial" font-size="13px" font-style="normal" font-weight="normal" text-decoration="none" x="993.2490234375" y="353">INT(11)</text></g></g><g transform="translate(-583,-222) scale(1,1)"><g><path fill="none" stroke="none"/><text fill="#0000ff" stroke="none" font-family="Arial" font-size="13px" font-style="normal" font-weight="normal" text-decoration="none" x="901" y="352.5"></text></g></g><g transform="translate(-583,-222) scale(1,1)"><g><path fill="none" stroke="none"/><text fill="#0000ff" stroke="none" font-family="Arial" font-size="13px" font-style="normal" font-weight="normal" text-decoration="none" x="901" y="368"></text></g></g><g transform="translate(-583,-222) scale(1,1)"><g><path fill="none" stroke="none"/><text fill="#0000ff" stroke="none" font-family="Arial" font-size="13px" font-style="normal" font-weight="normal" text-decoration="none" x="929.05908203125" y="368">date</text></g></g><g transform="translate(-583,-222) scale(1,1)"><g><path fill="none" stroke="none"/><text fill="#0000ff" stroke="none" font-family="Arial" font-size="13px" font-style="normal" font-weight="normal" text-decoration="none" x="993.2490234375" y="368">TIMESTAMP</text></g></g><g transform="translate(-583,-222) scale(1,1)"><g><path fill="none" stroke="none"/><text fill="#0000ff" stroke="none" font-family="Arial" font-size="13px" font-style="normal" font-weight="normal" text-decoration="none" x="901" y="367.5"></text></g></g><g transform="translate(-583,-222) scale(1,1)"><g><path fill="none" stroke="none"/><text fill="#0000ff" stroke="none" font-family="Arial" font-size="13px" font-style="normal" font-weight="normal" text-decoration="none" x="901" y="383"></text></g></g><g transform="translate(-583,-222) scale(1,1)"><g><path fill="none" stroke="none"/><text fill="#0000ff" stroke="none" font-family="Arial" font-size="13px" font-style="normal" font-weight="normal" text-decoration="none" x="929.05908203125" y="383">name</text></g></g><g transform="translate(-583,-222) scale(1,1)"><g><path fill="none" stroke="none"/><text fill="#0000ff" stroke="none" font-family="Arial" font-size="13px" font-style="normal" font-weight="normal" text-decoration="none" x="993.2490234375" y="383">VARCHAR(255)</text></g></g><g transform="translate(-583,-222) scale(1,1)"><g><path fill="none" stroke="none"/><text fill="#0000ff" stroke="none" font-family="Arial" font-size="13px" font-style="normal" font-weight="normal" text-decoration="none" x="901" y="382.5"></text></g></g><g transform="translate(-583,-222) scale(1,1)"><g><path fill="none" stroke="none"/><text fill="#0000ff" stroke="none" font-family="Arial" font-size="13px" font-style="normal" font-weight="normal" text-decoration="none" x="901" y="398">N</text></g></g><g transform="translate(-583,-222) scale(1,1)"><g><path fill="none" stroke="none"/><text fill="#0000ff" stroke="none" font-family="Arial" font-size="13px" font-style="normal" font-weight="normal" text-decoration="none" x="929.05908203125" y="398">detail</text></g></g><g transform="translate(-583,-222) scale(1,1)"><g><path fill="none" stroke="none"/><text fill="#0000ff" stroke="none" font-family="Arial" font-size="13px" font-style="normal" font-weight="normal" text-decoration="none" x="993.2490234375" y="398">MEDIUMTEXT</text></g></g><g transform="translate(-583,-222) scale(1,1)"><g><path fill="none" stroke="none"/><text fill="#0000ff" stroke="none" font-family="Arial" font-size="13px" font-style="normal" font-weight="normal" text-decoration="none" x="901" y="397.5"></text></g></g><g transform="translate(-583,-222) scale(1,1)"><g><path fill="none" stroke="none"/><text fill="#0000ff" stroke="none" font-family="Arial" font-size="13px" font-style="normal" font-weight="normal" text-decoration="none" x="901" y="413">N</text></g></g><g transform="translate(-583,-222) scale(1,1)"><g><path fill="none" stroke="none"/><text fill="#0000ff" stroke="none" font-family="Arial" font-size="13px" font-style="normal" font-weight="normal" text-decoration="none" x="929.05908203125" y="413">category</text></g></g><g transform="translate(-583,-222) scale(1,1)"><g><path fill="none" stroke="none"/><text fill="#0000ff" stroke="none" font-family="Arial" font-size="13px" font-style="normal" font-weight="normal" text-decoration="none" x="993.2490234375" y="413">VARCHAR(255)</text></g></g><g transform="translate(-583,-222) scale(1,1)"><g><path fill="none" stroke="none"/><text fill="#0000ff" stroke="none" font-family="Arial" font-size="13px" font-style="normal" font-weight="normal" text-decoration="none" x="901" y="412.5"></text></g></g><g transform="translate(-583,-222) scale(1,1)"><g><path fill="none" stroke="none"/><text fill="#0000ff" stroke="none" font-family="Arial" font-size="13px" font-style="normal" font-weight="normal" text-decoration="none" x="901" y="428">FK</text></g></g><g transform="translate(-583,-222) scale(1,1)"><g><path fill="none" stroke="none"/><text fill="#0000ff" stroke="none" font-family="Arial" font-size="13px" font-style="normal" font-weight="normal" text-decoration="none" x="929.05908203125" y="428">editor</text></g></g><g transform="translate(-583,-222) scale(1,1)"><g><path fill="none" stroke="none"/><text fill="#0000ff" stroke="none" font-family="Arial" font-size="13px" font-style="normal" font-weight="normal" text-decoration="none" x="993.2490234375" y="428">VARCHAR(255)</text></g></g><g transform="translate(-583,-222) scale(1,1)"><g><path fill="none" stroke="none"/><text fill="#0000ff" stroke="none" font-family="Arial" font-size="13px" font-style="normal" font-weight="normal" text-decoration="none" x="901" y="427.5"></text></g></g><g transform="translate(-583,-222) scale(1,1)"><path fill="none" stroke="#0000ff" d="M 825 360 L 896 360" stroke-miterlimit="10"/></g><g transform="translate(-583,-222) scale(1,1)"><path fill="none" stroke="#0000ff" d="M 882 360 L 896 367" stroke-miterlimit="10"/></g><g transform="translate(-583,-222) scale(1,1)"><path fill="none" stroke="#0000ff" d="M 882 360 L 896 353" stroke-miterlimit="10"/></g><g transform="translate(-583,-222) scale(1,1)"><path fill="#FFFFFF" stroke="none" d="M 867 360 C 867 356.1340064 870.1340064 353 874 353 C 877.8659936 353 881 356.1340064 881 360 C 881 363.8659936 877.8659936 367 874 367 C 870.1340064 367 867 363.8659936 867 360 Z"/></g><g transform="translate(-583,-222) scale(1,1)"><path fill="none" stroke="#0000ff" d="M 867 360 C 867 356.1340064 870.1340064 353 874 353 C 877.8659936 353 881 356.1340064 881 360 C 881 363.8659936 877.8659936 367 874 367 C 870.1340064 367 867 363.8659936 867 360 Z" stroke-miterlimit="10"/></g><g transform="translate(-583,-222) scale(1,1)"><path fill="none" stroke="#0000ff" d="M 832 353 L 832 367" stroke-miterlimit="10"/></g><g transform="translate(-583,-222) scale(1,1)"><path fill="none" stroke="#0000ff" d="M 839 353 L 839 367" stroke-miterlimit="10"/></g><g transform="translate(-583,-222) scale(1,1)"><g><path fill="none" stroke="none"/><text fill="#0000ff" stroke="none" font-family="Arial" font-size="13px" font-style="normal" font-weight="normal" text-decoration="none" x="849.5" y="351.5"></text></g></g><g transform="translate(-583,-222) scale(1,1)"><g><path fill="none" stroke="none"/><text fill="#0000ff" stroke="none" font-family="Arial" font-size="13px" font-style="normal" font-weight="normal" text-decoration="none" x="869.5" y="351.5"></text></g></g><g transform="translate(-583,-222) scale(1,1)"><rect fill="#ffffff" stroke="none" x="1168" y="296" width="249.0859375" height="135"/></g><g transform="translate(-583,-222) scale(1,1)"><path fill="none" stroke="#ff0000" d="M 1168 296 L 1417.0859375 296 L 1417.0859375 431 L 1168 431 L 1168 296 Z Z" stroke-miterlimit="10"/></g><g transform="translate(-583,-222) scale(1,1)"><path fill="none" stroke="#ff0000" d="M 1168 319 L 1417.0859375 319" stroke-miterlimit="10"/></g><g transform="translate(-583,-222) scale(1,1)"><path fill="none" stroke="#ff0000" d="M 1196.05908203125 319 L 1196.05908203125 431" stroke-miterlimit="10"/></g><g transform="translate(-583,-222) scale(1,1)"><path fill="none" stroke="#ff0000" d="M 1313.70263671875 319 L 1313.70263671875 431" stroke-miterlimit="10"/></g><g transform="translate(-583,-222) scale(1,1)"><g><path fill="none" stroke="none"/><text fill="#ff0000" stroke="none" font-family="Arial" font-size="13px" font-style="normal" font-weight="bold" text-decoration="none" x="1257.494384765625" y="313.5">participation</text></g></g><g transform="translate(-583,-222) scale(1,1)"><g><path fill="none" stroke="none"/><text fill="#ff0000" stroke="none" font-family="Arial" font-size="13px" font-style="normal" font-weight="normal" text-decoration="none" x="1173" y="337">PK</text></g></g><g transform="translate(-583,-222) scale(1,1)"><g><path fill="none" stroke="none"/><text fill="#ff0000" stroke="none" font-family="Arial" font-size="13px" font-style="normal" font-weight="normal" text-decoration="none" x="1201.05908203125" y="337">id</text></g></g><g transform="translate(-583,-222) scale(1,1)"><g><path fill="none" stroke="none"/><text fill="#ff0000" stroke="none" font-family="Arial" font-size="13px" font-style="normal" font-weight="normal" text-decoration="none" x="1318.70263671875" y="337">INT(11)</text></g></g><g transform="translate(-583,-222) scale(1,1)"><g><path fill="none" stroke="none"/><text fill="#ff0000" stroke="none" font-family="Arial" font-size="13px" font-style="normal" font-weight="normal" text-decoration="none" x="1173" y="336.5"></text></g></g><g transform="translate(-583,-222) scale(1,1)"><g><path fill="none" stroke="none"/><text fill="#ff0000" stroke="none" font-family="Arial" font-size="13px" font-style="normal" font-weight="normal" text-decoration="none" x="1173" y="352">FK</text></g></g><g transform="translate(-583,-222) scale(1,1)"><g><path fill="none" stroke="none"/><text fill="#ff0000" stroke="none" font-family="Arial" font-size="13px" font-style="normal" font-weight="normal" text-decoration="none" x="1201.05908203125" y="352">event_id</text></g></g><g transform="translate(-583,-222) scale(1,1)"><g><path fill="none" stroke="none"/><text fill="#ff0000" stroke="none" font-family="Arial" font-size="13px" font-style="normal" font-weight="normal" text-decoration="none" x="1318.70263671875" y="352">INT(11)</text></g></g><g transform="translate(-583,-222) scale(1,1)"><g><path fill="none" stroke="none"/><text fill="#ff0000" stroke="none" font-family="Arial" font-size="13px" font-style="normal" font-weight="normal" text-decoration="none" x="1173" y="351.5"></text></g></g><g transform="translate(-583,-222) scale(1,1)"><g><path fill="none" stroke="none"/><text fill="#ff0000" stroke="none" font-family="Arial" font-size="13px" font-style="normal" font-weight="normal" text-decoration="none" x="1173" y="367"></text></g></g><g transform="translate(-583,-222) scale(1,1)"><g><path fill="none" stroke="none"/><text fill="#ff0000" stroke="none" font-family="Arial" font-size="13px" font-style="normal" font-weight="normal" text-decoration="none" x="1201.05908203125" y="367">date</text></g></g><g transform="translate(-583,-222) scale(1,1)"><g><path fill="none" stroke="none"/><text fill="#ff0000" stroke="none" font-family="Arial" font-size="13px" font-style="normal" font-weight="normal" text-decoration="none" x="1318.70263671875" y="367">TIMESTAMP</text></g></g><g transform="translate(-583,-222) scale(1,1)"><g><path fill="none" stroke="none"/><text fill="#ff0000" stroke="none" font-family="Arial" font-size="13px" font-style="normal" font-weight="normal" text-decoration="none" x="1173" y="366.5"></text></g></g><g transform="translate(-583,-222) scale(1,1)"><g><path fill="none" stroke="none"/><text fill="#ff0000" stroke="none" font-family="Arial" font-size="13px" font-style="normal" font-weight="normal" text-decoration="none" x="1173" y="382"></text></g></g><g transform="translate(-583,-222) scale(1,1)"><g><path fill="none" stroke="none"/><text fill="#ff0000" stroke="none" font-family="Arial" font-size="13px" font-style="normal" font-weight="normal" text-decoration="none" x="1201.05908203125" y="382">participant_name</text></g></g><g transform="translate(-583,-222) scale(1,1)"><g><path fill="none" stroke="none"/><text fill="#ff0000" stroke="none" font-family="Arial" font-size="13px" font-style="normal" font-weight="normal" text-decoration="none" x="1318.70263671875" y="382">VARCHAR(255)</text></g></g><g transform="translate(-583,-222) scale(1,1)"><g><path fill="none" stroke="none"/><text fill="#ff0000" stroke="none" font-family="Arial" font-size="13px" font-style="normal" font-weight="normal" text-decoration="none" x="1173" y="381.5"></text></g></g><g transform="translate(-583,-222) scale(1,1)"><g><path fill="none" stroke="none"/><text fill="#ff0000" stroke="none" font-family="Arial" font-size="13px" font-style="normal" font-weight="normal" text-decoration="none" x="1173" y="397">N</text></g></g><g transform="translate(-583,-222) scale(1,1)"><g><path fill="none" stroke="none"/><text fill="#ff0000" stroke="none" font-family="Arial" font-size="13px" font-style="normal" font-weight="normal" text-decoration="none" x="1201.05908203125" y="397">phone_number</text></g></g><g transform="translate(-583,-222) scale(1,1)"><g><path fill="none" stroke="none"/><text fill="#ff0000" stroke="none" font-family="Arial" font-size="13px" font-style="normal" font-weight="normal" text-decoration="none" x="1318.70263671875" y="397">VARCHAR(20)</text></g></g><g transform="translate(-583,-222) scale(1,1)"><g><path fill="none" stroke="none"/><text fill="#ff0000" stroke="none" font-family="Arial" font-size="13px" font-style="normal" font-weight="normal" text-decoration="none" x="1173" y="396.5"></text></g></g><g transform="translate(-583,-222) scale(1,1)"><g><path fill="none" stroke="none"/><text fill="#ff0000" stroke="none" font-family="Arial" font-size="13px" font-style="normal" font-weight="normal" text-decoration="none" x="1173" y="412"></text></g></g><g transform="translate(-583,-222) scale(1,1)"><g><path fill="none" stroke="none"/><text fill="#ff0000" stroke="none" font-family="Arial" font-size="13px" font-style="normal" font-weight="normal" text-decoration="none" x="1201.05908203125" y="412">email</text></g></g><g transform="translate(-583,-222) scale(1,1)"><g><path fill="none" stroke="none"/><text fill="#ff0000" stroke="none" font-family="Arial" font-size="13px" font-style="normal" font-weight="normal" text-decoration="none" x="1318.70263671875" y="412">VARCHAR(255)</text></g></g><g transform="translate(-583,-222) scale(1,1)"><g><path fill="none" stroke="none"/><text fill="#ff0000" stroke="none" font-family="Arial" font-size="13px" font-style="normal" font-weight="normal" text-decoration="none" x="1173" y="411.5"></text></g></g><g transform="translate(-583,-222) scale(1,1)"><g><path fill="none" stroke="none"/><text fill="#ff0000" stroke="none" font-family="Arial" font-size="13px" font-style="normal" font-weight="normal" text-decoration="none" x="1173" y="427">N</text></g></g><g transform="translate(-583,-222) scale(1,1)"><g><path fill="none" stroke="none"/><text fill="#ff0000" stroke="none" font-family="Arial" font-size="13px" font-style="normal" font-weight="normal" text-decoration="none" x="1201.05908203125" y="427">comment</text></g></g><g transform="translate(-583,-222) scale(1,1)"><g><path fill="none" stroke="none"/><text fill="#ff0000" stroke="none" font-family="Arial" font-size="13px" font-style="normal" font-weight="normal" text-decoration="none" x="1318.70263671875" y="427">TEXT</text></g></g><g transform="translate(-583,-222) scale(1,1)"><g><path fill="none" stroke="none"/><text fill="#ff0000" stroke="none" font-family="Arial" font-size="13px" font-style="normal" font-weight="normal" text-decoration="none" x="1173" y="426.5"></text></g></g><g transform="translate(-583,-222) scale(1,1)"><path fill="none" stroke="#ff0000" d="M 1093 368 L 1168 368" stroke-miterlimit="10"/></g><g transform="translate(-583,-222) scale(1,1)"><path fill="none" stroke="#ff0000" d="M 1154 368 L 1168 375" stroke-miterlimit="10"/></g><g transform="translate(-583,-222) scale(1,1)"><path fill="none" stroke="#ff0000" d="M 1154 368 L 1168 361" stroke-miterlimit="10"/></g><g transform="translate(-583,-222) scale(1,1)"><path fill="#FFFFFF" stroke="none" d="M 1139 368 C 1139 364.1340064 1142.1340064 361 1146 361 C 1149.8659936 361 1153 364.1340064 1153 368 C 1153 371.8659936 1149.8659936 375 1146 375 C 1142.1340064 375 1139 371.8659936 1139 368 Z"/></g><g transform="translate(-583,-222) scale(1,1)"><path fill="none" stroke="#ff0000" d="M 1139 368 C 1139 364.1340064 1142.1340064 361 1146 361 C 1149.8659936 361 1153 364.1340064 1153 368 C 1153 371.8659936 1149.8659936 375 1146 375 C 1142.1340064 375 1139 371.8659936 1139 368 Z" stroke-miterlimit="10"/></g><g transform="translate(-583,-222) scale(1,1)"><path fill="none" stroke="#ff0000" d="M 1100 361 L 1100 375" stroke-miterlimit="10"/></g><g transform="translate(-583,-222) scale(1,1)"><path fill="none" stroke="#ff0000" d="M 1107 361 L 1107 375" stroke-miterlimit="10"/></g><g transform="translate(-583,-222) scale(1,1)"><g><path fill="none" stroke="none"/><text fill="#000000" stroke="none" font-family="Arial" font-size="13px" font-style="normal" font-weight="normal" text-decoration="none" x="1117.5" y="359.5"></text></g></g><g transform="translate(-583,-222) scale(1,1)"><g><path fill="none" stroke="none"/><text fill="#ff0000" stroke="none" font-family="Arial" font-size="13px" font-style="normal" font-weight="normal" text-decoration="none" x="1141.5" y="359.5"></text></g></g></g></svg>